<mxfile host="app.diagrams.net" modified="2021-07-06T01:19:33.467Z" agent="5.0 (Windows NT 10.0; Win64; x64) AppleWebKit/537.36 (KHTML, like Gecko) Chrome/91.0.4472.124 Safari/537.36" etag="wJ1_wvGlgpEWkjgkYLuF" version="14.8.4" type="github">
  <diagram id="7q0owrCflNP7L6XqwVch" name="Page-1">
    <mxGraphModel dx="782" dy="436" grid="1" gridSize="10" guides="1" tooltips="1" connect="1" arrows="1" fold="1" page="1" pageScale="1" pageWidth="850" pageHeight="1100" math="0" shadow="0">
      <root>
        <mxCell id="0" />
        <mxCell id="1" parent="0" />
        <mxCell id="OI1b5vOUuvv0nm-rJtTq-3" value="" style="edgeStyle=orthogonalEdgeStyle;rounded=0;orthogonalLoop=1;jettySize=auto;html=1;" edge="1" parent="1" source="OI1b5vOUuvv0nm-rJtTq-1" target="OI1b5vOUuvv0nm-rJtTq-2">
          <mxGeometry relative="1" as="geometry" />
        </mxCell>
        <mxCell id="OI1b5vOUuvv0nm-rJtTq-1" value="&lt;span style=&quot;font-family: &amp;#34;vollkorn&amp;#34; , &amp;#34;palatino&amp;#34; , &amp;#34;times&amp;#34; ; font-size: 17px ; text-align: left ; background-color: rgb(255 , 255 , 255)&quot;&gt;libdrm.so&lt;/span&gt;" style="rounded=0;whiteSpace=wrap;html=1;" vertex="1" parent="1">
          <mxGeometry x="260" y="280" width="120" height="50" as="geometry" />
        </mxCell>
        <mxCell id="OI1b5vOUuvv0nm-rJtTq-2" value="&lt;span style=&quot;font-family: &amp;#34;vollkorn&amp;#34; , &amp;#34;palatino&amp;#34; , &amp;#34;times&amp;#34; ; font-size: 17px ; text-align: left ; background-color: rgb(250 , 250 , 250)&quot;&gt;lib_drm_fe.so&lt;/span&gt;" style="rounded=0;whiteSpace=wrap;html=1;" vertex="1" parent="1">
          <mxGeometry x="260" y="360" width="120" height="50" as="geometry" />
        </mxCell>
        <mxCell id="OI1b5vOUuvv0nm-rJtTq-7" value="" style="edgeStyle=orthogonalEdgeStyle;rounded=0;orthogonalLoop=1;jettySize=auto;html=1;" edge="1" parent="1" source="OI1b5vOUuvv0nm-rJtTq-6" target="OI1b5vOUuvv0nm-rJtTq-1">
          <mxGeometry relative="1" as="geometry" />
        </mxCell>
        <mxCell id="OI1b5vOUuvv0nm-rJtTq-6" value="&lt;span style=&quot;font-family: &amp;#34;vollkorn&amp;#34; , &amp;#34;palatino&amp;#34; , &amp;#34;times&amp;#34; ; font-size: 17px ; text-align: left ; background-color: rgb(250 , 250 , 250)&quot;&gt;libsdedrm.so&lt;/span&gt;" style="rounded=0;whiteSpace=wrap;html=1;" vertex="1" parent="1">
          <mxGeometry x="260" y="190" width="120" height="50" as="geometry" />
        </mxCell>
        <mxCell id="OI1b5vOUuvv0nm-rJtTq-8" value="&lt;span style=&quot;font-family: &amp;#34;vollkorn&amp;#34; , &amp;#34;palatino&amp;#34; , &amp;#34;times&amp;#34; ; font-size: 17px ; text-align: left ; background-color: rgb(255 , 255 , 255)&quot;&gt;hwcomposer.msmnile.so&lt;/span&gt;" style="rounded=0;whiteSpace=wrap;html=1;" vertex="1" parent="1">
          <mxGeometry x="220" y="60" width="220" height="60" as="geometry" />
        </mxCell>
      </root>
    </mxGraphModel>
  </diagram>
</mxfile>
